<?xml version="1.0" encoding="utf-8"?>
<!-- Generator: Adobe Illustrator 22.0.1, SVG Export Plug-In . SVG Version: 6.00 Build 0)  -->
<svg version="1.1"
	 id="svg8" inkscape:version="0.92.4 (5da689c313, 2019-01-14)" sodipodi:docname="portada.svg" xmlns:cc="http://creativecommons.org/ns#" xmlns:dc="http://purl.org/dc/elements/1.1/" xmlns:inkscape="http://www.inkscape.org/namespaces/inkscape" xmlns:rdf="http://www.w3.org/1999/02/22-rdf-syntax-ns#" xmlns:sodipodi="http://sodipodi.sourceforge.net/DTD/sodipodi-0.dtd" xmlns:svg="http://www.w3.org/2000/svg"
	 xmlns="http://www.w3.org/2000/svg" xmlns:xlink="http://www.w3.org/1999/xlink" x="0px" y="0px" viewBox="0 0 419.5 595.3"
	 style="enable-background:new 0 0 419.5 595.3;" xml:space="preserve">
<style type="text/css">
	.st0{font-family:'QuestaGrande-Regular';}
	.st1{font-size:15px;}
	.st2{letter-spacing:1;}
	.st3{font-family:'TeXGyreSchola-Regular';}
	.st4{font-family:'TeXGyreHeros-Regular';}
	.st5{font-size:10px;}
	.st6{fill:none;stroke:#000000;stroke-width:0.2331;}
	.st7{font-family:'TeXGyreSchola-Italic';}
	.st8{font-size:21px;}
	.st9{letter-spacing:3;}
	.st10{fill:none;}
	.st11{font-size:9px;}
	.st12{letter-spacing:2;}
</style>
<sodipodi:namedview  bordercolor="#666666" borderopacity="1.0" id="base" inkscape:current-layer="layer1" inkscape:cx="316.58171" inkscape:cy="468.43222" inkscape:document-units="mm" inkscape:pagecheckerboard="false" inkscape:pageopacity="1" inkscape:pageshadow="2" inkscape:window-height="703" inkscape:window-maximized="1" inkscape:window-width="1366" inkscape:window-x="0" inkscape:window-y="28" inkscape:zoom="0.7" pagecolor="#ffffff" showgrid="false" width="149mm">
	</sodipodi:namedview>
<g id="layer1" transform="translate(0,-87)" inkscape:groupmode="layer" inkscape:label="Capa 1">
	<g>
		<text transform="matrix(1 0 0 1 122.046 224.534)"><tspan x="0" y="0" class="st0 st1 st2"> </tspan><tspan x="5.3" y="0" class="st3 st1 st2">G.K.</tspan><tspan x="44.4" y="0" class="st3 st1"> </tspan><tspan x="47.8" y="0" class="st3 st1 st2">CHESTERTON</tspan></text>
	</g>
	<text transform="matrix(1 0 0 1 187.5587 192.7293)" class="st4 st5">El libro de</text>
	<text transform="matrix(1 0 0 1 179.5841 252.5868)" class="st4 st5">del año 1908 </text>
	<text transform="matrix(1 0 0 1 164.7242 581.871)" class="st3 st5">Caracas, Venezuela</text>
	<path id="path1311" inkscape:connector-curvature="0" class="st6" d="M94.5,346.2H325"/>
	<text transform="matrix(1 0 0 1 125.9635 301.0536)" class="st7 st8 st9">ORTODOXIA</text>
	<path id="path1311-7" inkscape:connector-curvature="0" class="st6" d="M94.5,522.7H325"/>
	<g>
		<rect x="151.9" y="383.6" class="st10" width="121" height="96.7"/>
		<text transform="matrix(1 0 0 1 151.8957 390.1965)"><tspan x="0" y="0" class="st4 st11">La</tspan><tspan x="10" y="0" class="st4 st11"> </tspan><tspan x="13.5" y="0" class="st4 st11">imaginación</tspan><tspan x="61.5" y="0" class="st4 st11"> </tspan><tspan x="65" y="0" class="st4 st11">no</tspan><tspan x="75" y="0" class="st4 st11"> </tspan><tspan x="78.5" y="0" class="st4 st11">provoca</tspan><tspan x="110.5" y="0" class="st4 st11"> </tspan><tspan x="114" y="0" class="st4 st11">la </tspan><tspan x="0" y="10.8" class="st4 st11">locura.</tspan><tspan x="27" y="10.8" class="st4 st11"> </tspan><tspan x="29.3" y="10.8" class="st4 st11">Para</tspan><tspan x="48.3" y="10.8" class="st4 st11"> </tspan><tspan x="50.6" y="10.8" class="st4 st11">ser</tspan><tspan x="63.1" y="10.8" class="st4 st11"> </tspan><tspan x="65.4" y="10.8" class="st4 st11">exacto,</tspan><tspan x="94.4" y="10.8" class="st4 st11"> </tspan><tspan x="96.7" y="10.8" class="st4 st11">lo</tspan><tspan x="103.7" y="10.8" class="st4 st11"> </tspan><tspan x="106" y="10.8" class="st4 st11">que </tspan><tspan x="0" y="21.6" class="st4 st11">fomenta</tspan><tspan x="32.5" y="21.6" class="st4 st11"> </tspan><tspan x="35.6" y="21.6" class="st4 st11">la</tspan><tspan x="42.6" y="21.6" class="st4 st11"> </tspan><tspan x="45.7" y="21.6" class="st4 st11">locura</tspan><tspan x="70.2" y="21.6" class="st4 st11"> </tspan><tspan x="73.3" y="21.6" class="st4 st11">es</tspan><tspan x="82.8" y="21.6" class="st4 st11"> </tspan><tspan x="85.9" y="21.6" class="st4 st11">la</tspan><tspan x="92.9" y="21.6" class="st4 st11"> </tspan><tspan x="96" y="21.6" class="st4 st11">razón. </tspan><tspan x="0" y="32.4" class="st4 st11">Los</tspan><tspan x="14.5" y="32.4" class="st4 st11"> </tspan><tspan x="16.7" y="32.4" class="st4 st11">poetas</tspan><tspan x="43.8" y="32.4" class="st4 st11"> </tspan><tspan x="46" y="32.4" class="st4 st11">no</tspan><tspan x="56" y="32.4" class="st4 st11"> </tspan><tspan x="58.2" y="32.4" class="st4 st11">enloquecen;</tspan><tspan x="107.3" y="32.4" class="st4 st11"> </tspan><tspan x="109.5" y="32.4" class="st4 st11">los </tspan><tspan x="0" y="43.2" class="st4 st11">jugadores</tspan><tspan x="39.5" y="43.2" class="st4 st11 st2"> </tspan><tspan x="44" y="43.2" class="st4 st11">de</tspan><tspan x="54" y="43.2" class="st4 st11 st2"> </tspan><tspan x="58.5" y="43.2" class="st4 st11">ajedrez</tspan><tspan x="88" y="43.2" class="st4 st11 st2"> </tspan><tspan x="92.5" y="43.2" class="st4 st11">sí.</tspan><tspan x="102" y="43.2" class="st4 st11 st2"> </tspan><tspan x="106.5" y="43.2" class="st4 st11">Los </tspan><tspan x="0" y="54" class="st4 st11">matemáticos</tspan><tspan x="51" y="54" class="st4 st11"> </tspan><tspan x="54.3" y="54" class="st4 st11">y</tspan><tspan x="58.8" y="54" class="st4 st11"> </tspan><tspan x="62" y="54" class="st4 st11">los</tspan><tspan x="73.5" y="54" class="st4 st11"> </tspan><tspan x="76.7" y="54" class="st4 st11">cajeros,</tspan><tspan x="108.3" y="54" class="st4 st11"> </tspan><tspan x="111.5" y="54" class="st4 st11">se </tspan><tspan x="0" y="64.8" class="st4 st11">vuelven</tspan><tspan x="31" y="64.8" class="st4 st11 st12"> </tspan><tspan x="35.6" y="64.8" class="st4 st11">locos;</tspan><tspan x="59.1" y="64.8" class="st4 st11 st12"> </tspan><tspan x="63.8" y="64.8" class="st4 st11">pero</tspan><tspan x="81.8" y="64.8" class="st4 st11 st12"> </tspan><tspan x="86.4" y="64.8" class="st4 st11">rara</tspan><tspan x="102.4" y="64.8" class="st4 st11 st12"> </tspan><tspan x="107" y="64.8" class="st4 st11">vez </tspan><tspan x="0" y="75.6" class="st4 st11">enloquecen</tspan><tspan x="46.5" y="75.6" class="st4 st11 st9"> </tspan><tspan x="52.8" y="75.6" class="st4 st11">los</tspan><tspan x="64.3" y="75.6" class="st4 st11 st9"> </tspan><tspan x="70.7" y="75.6" class="st4 st11">artistas</tspan><tspan x="99.7" y="75.6" class="st4 st11 st9"> </tspan><tspan x="106" y="75.6" class="st4 st11">que </tspan><tspan x="45.5" y="86.4" class="st4 st11">crean.»</tspan></text>
		<text transform="matrix(1 0 0 1 146.6321 389.6975)" class="st4 st11">«</text>
	</g>
</g>
</svg>
